<svg xmlns="http://www.w3.org/2000/svg" fill="none" viewBox="0 0 116 30"><path fill="#25386D" d="M25.758 13.789a.28.28 0 0 0-.277.28V26.17c0 .155-.123.28-.276.28H8.767c-.08 0-.124.047-.124.129v2.063c.001.076.06.1.117.1l18.762.08v-.003a.28.28 0 0 0 .276-.28v-14.47a.28.28 0 0 0-.276-.28zm-4.91.28a.28.28 0 0 0-.275-.28h-1.765a.28.28 0 0 0-.276.28v5.236c0 .035-.006.062-.032.088-.025.026-.051.032-.086.033H8.154c-.216 0-.412.023-.584.198L.167 27.122c-.05.05-.05.116 0 .166l1.474 1.495c.05.05.115.05.164 0l6.752-6.845a.6.6 0 0 1 .447-.163h11.728a.11.11 0 0 0 .085-.033.11.11 0 0 0 .032-.086zm81.886 8.735.67-3.78q3.406 1.577 5.418 1.577 2.039 0 2.039-1.768 0-.978-.536-1.455-.537-.476-1.825-.965a49 49 0 0 1-1.287-.49 29 29 0 0 1-1.14-.503q-.738-.34-1.1-.598a10 10 0 0 1-.858-.707 3.3 3.3 0 0 1-.737-.925 5.7 5.7 0 0 1-.416-1.142 5.6 5.6 0 0 1-.174-1.427q0-2.557 1.904-3.903t4.801-1.346q2.414 0 5.15 1.006l-.778 3.617q-2.28-1.088-4.345-1.088-2.146 0-2.146 1.714 0 .598.496 1.087a3.5 3.5 0 0 0 1.006.721q.51.231 1.636.666.885.354 1.395.585.51.232 1.274.72.765.49 1.18 1.007t.738 1.346.322 1.836q0 2.502-1.771 4.038t-4.533 1.536q-3.942 0-6.383-1.36m-15.004 0 .67-3.78q3.409 1.577 5.42 1.577 2.038 0 2.038-1.768 0-.978-.536-1.455-.537-.476-1.824-.965a48 48 0 0 1-1.288-.49 29 29 0 0 1-1.14-.503q-.737-.34-1.099-.598a10 10 0 0 1-.858-.707 3.3 3.3 0 0 1-.738-.925q-.241-.476-.416-1.142a5.6 5.6 0 0 1-.174-1.427q0-2.558 1.904-3.903 1.905-1.346 4.801-1.346 2.414 0 5.15 1.006l-.777 3.617q-2.28-1.088-4.346-1.088-2.145 0-2.145 1.714 0 .598.496 1.087.496.49 1.005.721.51.231 1.636.666.886.354 1.395.585.51.232 1.274.72.765.49 1.18 1.007.417.516.738 1.346.322.83.322 1.836 0 2.502-1.77 4.038t-4.533 1.536q-3.943 0-6.384-1.36M75.882 19.92q.657.408 1.65.408t1.65-.408.979-1.224a7 7 0 0 0 .429-1.713q.107-.897.107-2.203 0-1.06-.053-1.822a8.5 8.5 0 0 0-.255-1.536q-.201-.775-.537-1.265a2.4 2.4 0 0 0-.925-.788q-.59-.3-1.395-.3-.993 0-1.65.422t-.978 1.265a7.7 7.7 0 0 0-.443 1.767q-.12.925-.12 2.257 0 1.305.12 2.203t.443 1.713.978 1.224M74.22 5.902q1.435-.53 3.339-.53 1.905 0 3.34.53t2.28 1.387q.843.857 1.367 2.122.523 1.264.697 2.529.175 1.265.175 2.841 0 1.55-.188 2.815a10.7 10.7 0 0 1-.71 2.529q-.525 1.265-1.382 2.121-.858.857-2.294 1.387-1.434.53-3.365.53-1.906 0-3.326-.53-1.422-.53-2.267-1.387-.845-.856-1.368-2.121a10.3 10.3 0 0 1-.697-2.529 21 21 0 0 1-.174-2.815q0-1.55.187-2.828.188-1.279.724-2.542.537-1.264 1.382-2.122.844-.855 2.28-1.387M58.8 8.99v5.52q.135 0 .389.028.255.027.456.04t.362.014q1.26 0 1.958-.585.697-.585.697-2.189 0-2.883-2.628-2.883-.858 0-1.234.055m-4.828 14.875V6.106q2.87-.598 6.062-.598 1.208 0 2.186.136.979.135 1.971.544.993.408 1.65 1.074t1.073 1.795.416 2.651q0 4.189-3.3 5.602l4.292 6.554h-5.204L59.552 17.8a12 12 0 0 1-.75-.109v6.173zm-16.908-9.137q.08-2.584.845-4.46t2.079-2.91a8.8 8.8 0 0 1 2.83-1.509q1.515-.476 3.312-.476 2.253 0 4.935.843l-.697 3.372q-2.468-.68-3.89-.68Q42 8.907 42 14.645q0 3.237 1.06 4.542 1.059 1.305 3.044 1.305a8 8 0 0 0 1.1-.082v-5.792h4.452v8.54q-2.79.95-6.007.95-8.557 0-8.584-9.38M2.317 3.263v16.91c-.002.338-.027.446-.25.663L.346 22.582c-.241.245-.346.12-.345-.127V.915a.276.276 0 0 1 .275-.28H27.7c.023 0 .051.015.067.031a.11.11 0 0 1 .032.088c.003.384-.002 1.402 0 1.786a.56.56 0 0 1-.185.44c-2.227 2.258-4.546 4.618-6.774 6.877-.138.145-.255.173-.453.173h-11a.12.12 0 0 0-.088.033.1.1 0 0 0-.032.076v5.41a.11.11 0 0 1-.032.086.11.11 0 0 1-.086.033H7.066a.1.1 0 0 1-.084-.033.11.11 0 0 1-.033-.086V7.803c0-.034.006-.062.033-.089a.11.11 0 0 1 .087-.033h12.414c.178 0 .34-.038.485-.187 1.255-1.272 2.797-2.912 4.052-4.185.188-.202.178-.323-.132-.325H2.593a.28.28 0 0 0-.276.28"></path></svg>