<svg xmlns="http://www.w3.org/2000/svg" width="168" height="40" viewBox="0 0 168 40" fill="none">
    <g clip-path="url(#clip0_1431_14117)">
        <path d="M22.0486 13.2179C18.5924 13.2179 15.7914 16.0251 15.7914 19.4889C15.7914 22.952 18.5924 25.7599 22.0486 25.7599C25.5044 25.7599 28.3057 22.952 28.3057 19.4889C28.3057 16.0251 25.5044 13.2179 22.0486 13.2179ZM21.9511 34.4271C20.6176 34.4271 19.5361 35.5106 19.5361 36.8474C19.5361 38.1835 20.6176 39.2674 21.9511 39.2674C23.285 39.2674 24.3658 38.1835 24.3658 36.8474C24.3658 35.5106 23.285 34.4271 21.9511 34.4271ZM37.0052 30.018C38.3393 30.018 39.4205 28.9348 39.4205 27.598C39.4205 26.2611 38.3393 25.1776 37.0052 25.1776C35.6719 25.1776 34.5908 26.2611 34.5908 27.598C34.5908 28.9348 35.6719 30.018 37.0052 30.018ZM33.9037 10.5432C33.9037 11.8796 34.9845 12.9632 36.3184 12.9632C37.6519 12.9632 38.733 11.8796 38.733 10.5432C38.733 9.20633 37.6519 8.12279 36.3184 8.12279C34.9845 8.12279 33.9037 9.20633 33.9037 10.5432ZM21.7834 4.84065C23.1169 4.84065 24.1981 3.75712 24.1981 2.42065C24.1981 1.08419 23.1169 0 21.7834 0C20.4495 0 19.3684 1.08419 19.3684 2.42065C19.3684 3.75712 20.4495 4.84065 21.7834 4.84065ZM9.4396 11.2186C9.4396 9.88177 8.35846 8.79833 7.02458 8.79833C5.69107 8.79833 4.60965 9.88177 4.60965 11.2186C4.60965 12.5554 5.69107 13.6386 7.02458 13.6386C8.35846 13.6386 9.4396 12.5554 9.4396 11.2186ZM2.07341 17.4431C0.927943 17.4431 -0.000976562 18.374 -0.000976562 19.5217C-0.000976562 20.67 0.927943 21.6003 2.07341 21.6003C3.21887 21.6003 4.14779 20.67 4.14779 19.5217C4.14779 18.374 3.21887 17.4431 2.07341 17.4431ZM12.0446 4.42019C13.103 4.42019 13.9609 3.56037 13.9609 2.49972C13.9609 1.43898 13.103 0.579535 12.0446 0.579535C10.9866 0.579535 10.1291 1.43898 10.1291 2.49972C10.1291 3.56037 10.9866 4.42019 12.0446 4.42019ZM31.7778 4.53312C32.897 4.53312 33.8035 3.62428 33.8035 2.50344C33.8035 1.38205 32.897 0.473209 31.7778 0.473209C30.6594 0.473209 29.7527 1.38205 29.7527 2.50344C29.7527 3.62428 30.6594 4.53312 31.7778 4.53312ZM43.4614 19.7263C43.4614 18.6277 42.5727 17.7375 41.4768 17.7375C40.3809 17.7375 39.4924 18.6277 39.4924 19.7263C39.4924 20.8247 40.3809 21.7153 41.4768 21.7153C42.5727 21.7153 43.4614 20.8247 43.4614 19.7263ZM31.7712 34.7622C30.7077 34.7622 29.8456 35.6262 29.8456 36.6921C29.8456 37.758 30.7077 38.622 31.7712 38.622C32.8347 38.622 33.6968 37.758 33.6968 36.6921C33.6968 35.6262 32.8347 34.7622 31.7712 34.7622ZM11.9991 34.6956C10.9223 34.6956 10.0499 35.5703 10.0499 36.6493C10.0499 37.7283 10.9223 38.6036 11.9991 38.6036C13.0758 38.6036 13.9485 37.7283 13.9485 36.6493C13.9485 35.5703 13.0758 34.6956 11.9991 34.6956ZM9.45854 28.2389C9.45854 26.9024 8.37703 25.819 7.04389 25.819C5.71 25.819 4.62923 26.9024 4.62923 28.2389C4.62923 29.5761 5.71 30.6593 7.04389 30.6593C8.37703 30.6593 9.45854 29.5761 9.45854 28.2389ZM15.8179 27.0822C14.182 27.0822 12.856 28.4115 12.856 30.0511C12.856 31.6906 14.182 33.0198 15.8179 33.0198C17.4542 33.0198 18.7798 31.6906 18.7798 30.0511C18.7798 28.4115 17.4542 27.0822 15.8179 27.0822ZM9.82322 22.563C11.4595 22.563 12.7858 21.234 12.7858 19.5945C12.7858 17.955 11.4595 16.6264 9.82322 16.6264C8.18796 16.6264 6.86131 17.955 6.86131 19.5945C6.86131 21.234 8.18796 22.563 9.82322 22.563ZM15.8152 6.29451C14.1792 6.29451 12.8526 7.62372 12.8526 9.26288C12.8526 10.9025 14.1792 12.2317 15.8152 12.2317C17.4514 12.2317 18.7771 10.9025 18.7771 9.26288C18.7771 7.62372 17.4514 6.29451 15.8152 6.29451ZM27.8442 12.1724C29.4805 12.1724 30.8061 10.8431 30.8061 9.20354C30.8061 7.564 29.4805 6.23479 27.8442 6.23479C26.208 6.23479 24.882 7.564 24.882 9.20354C24.882 10.8431 26.208 12.1724 27.8442 12.1724ZM36.8195 19.7039C36.8195 18.0644 35.4939 16.7354 33.8579 16.7354C32.2217 16.7354 30.8953 18.0644 30.8953 19.7039C30.8953 21.3432 32.2217 22.6724 33.8579 22.6724C35.4939 22.6724 36.8195 21.3432 36.8195 19.7039ZM27.5271 27.2072C25.8912 27.2072 24.5648 28.5365 24.5648 30.1756C24.5648 31.8152 25.8912 33.1445 27.5271 33.1445C29.163 33.1445 30.489 31.8152 30.489 30.1756C30.489 28.5365 29.163 27.2072 27.5271 27.2072Z" fill="#141416"/>
        <path d="M55.4854 9.87208V22.3741C55.4854 23.3778 57.0504 23.3361 57.0504 22.3741V9.87208C57.0504 9.35691 56.6549 9.0957 56.2619 9.0957C55.8727 9.0957 55.4854 9.35198 55.4854 9.87208Z" fill="#141416"/>
        <path d="M61.5332 14.2385V12.9424C61.5332 11.9391 60.0317 11.9595 60.0317 12.9216V22.288C60.0317 22.7477 60.3442 23.0196 60.8243 23.0196C61.304 23.0196 61.5752 22.7477 61.5752 22.288V17.4372C61.5752 15.1586 63.4736 13.4859 65.4972 13.4859C67.1869 13.4859 68.7305 14.8238 68.7305 16.7473V22.288C68.7305 22.7477 69.043 23.0196 69.5025 23.0196C69.9822 23.0196 70.2531 22.7477 70.2531 22.288V16.7473C70.2531 13.7372 67.9376 12.0645 65.5178 12.0645C63.8907 12.0645 62.2843 12.7121 61.5332 14.2385Z" fill="#141416"/>
        <path d="M74.0937 9.82837V12.2539H72.7169C71.7988 12.2539 71.7362 13.571 72.7169 13.571H74.0937V19.2158C74.0937 21.2015 74.6985 23.0414 77.2021 23.0414C77.7654 23.0414 78.2867 22.9791 78.8083 22.686C79.7471 22.1633 79.0586 20.93 78.1823 21.4318C77.9738 21.5572 77.5147 21.6616 77.2021 21.6616C75.7834 21.6616 75.5956 20.4072 75.5956 19.2158V13.571H77.8696C78.8083 13.571 78.8083 12.2539 77.8696 12.2539H75.5956V9.82837C75.5956 9.33479 75.2162 9.08355 74.8389 9.08374C74.4651 9.08374 74.0937 9.32958 74.0937 9.82837Z" fill="#141416"/>
        <path d="M84.5645 13.6755C85.2739 13.4667 86.1294 13.4667 86.8178 13.6549H86.7965C88.4236 14.0729 89.5087 15.4317 89.6546 17.2093H81.7899C81.9152 15.5155 82.8958 14.1145 84.5645 13.6755ZM84.1054 12.2957C80.2256 13.3831 79.2449 18.1918 81.4983 21.1601C82.4787 22.3935 84.1054 23.0211 85.7325 23.0211C87.0887 23.0417 88.4865 22.6654 89.4458 21.7665C90.2594 20.9302 89.1747 20.0731 88.4449 20.742C87.631 21.3694 86.6296 21.6202 85.6704 21.6202C83.5842 21.6202 82.1238 20.1983 81.8527 18.4841H90.0926C90.9478 18.4841 91.1565 17.9825 91.115 17.5225V17.5435C91.0729 14.8672 89.6131 12.9439 87.256 12.2957H87.2349C86.714 12.1575 86.1666 12.084 85.6251 12.084C85.1032 12.084 84.5865 12.1523 84.1054 12.2957Z" fill="#141416"/>
        <path d="M95.2036 13.9901V12.9449C95.2036 11.9415 93.7231 12.0248 93.7231 12.9449V22.2067C93.7231 22.6457 94.035 22.9384 94.4945 22.9384C94.8908 22.9384 95.2454 22.6457 95.2454 22.2067V17.4818C95.2454 15.3704 96.1633 13.6559 98.3121 13.6559C98.7919 13.6559 99.1047 13.405 99.1047 12.9449C99.1047 12.4641 98.7919 12.2129 98.3121 12.2129C97.1231 12.2129 95.8709 12.5897 95.2036 13.9901Z" fill="#141416"/>
        <path d="M108.012 14.2385V12.9424C108.012 11.9391 106.509 11.9595 106.509 12.9216V22.288C106.509 22.7477 106.823 23.0196 107.302 23.0196C107.781 23.0196 108.053 22.7477 108.053 22.288V17.4372C108.053 15.1586 109.951 13.4859 111.975 13.4859C113.664 13.4859 115.208 14.8238 115.208 16.7473V22.288C115.208 22.7477 115.521 23.0196 115.98 23.0196C116.46 23.0196 116.731 22.7477 116.731 22.288V16.7473C116.731 13.7372 114.415 12.0645 111.996 12.0645C110.368 12.0645 108.762 12.7121 108.012 14.2385Z" fill="#141416"/>
        <path d="M122.365 20.9102C121.239 19.9693 120.801 18.715 120.843 17.3559C120.863 16.8124 120.968 16.248 121.156 15.8089C121.739 14.3453 123.241 13.551 124.723 13.5721C126.6 13.6558 128.04 14.722 128.04 16.7915V18.4431C127.935 20.5337 126.433 21.7047 124.514 21.7047C123.742 21.642 122.992 21.3907 122.365 20.9102ZM122.512 12.5264L122.532 12.5058C120.53 13.2791 119.361 15.2238 119.32 17.3352C119.258 19.3844 120.071 21.161 121.656 22.2482C122.532 22.8755 123.659 23.1471 124.66 23.1471C125.891 23.1471 127.435 22.4571 128.04 21.2444V22.2482C128.04 22.7083 128.311 23.001 128.791 23.001C129.249 23.001 129.562 22.7083 129.562 22.2482V12.9659C129.562 12.5264 129.249 12.2128 128.791 12.2128C128.311 12.2128 128.04 12.5264 128.04 12.9659V13.7602C127.289 12.5264 125.933 12.1501 124.744 12.1295C124.679 12.1277 124.615 12.1268 124.552 12.1268C123.829 12.1268 123.144 12.2383 122.512 12.5264Z" fill="#141416"/>
        <path d="M133.63 9.82837V12.2539H132.253C131.335 12.2539 131.273 13.571 132.253 13.571H133.63V19.2158C133.63 21.2015 134.235 23.0414 136.738 23.0414C137.301 23.0414 137.823 22.9791 138.345 22.686C139.283 22.1633 138.595 20.93 137.719 21.4318C137.51 21.5572 137.051 21.6616 136.738 21.6616C135.32 21.6616 135.132 20.4072 135.132 19.2158V13.571H137.406C138.345 13.571 138.345 12.2539 137.406 12.2539H135.132V9.82837C135.132 9.33479 134.753 9.08355 134.375 9.08374C134.002 9.08374 133.63 9.32958 133.63 9.82837Z" fill="#141416"/>
        <path d="M140.68 12.9435V22.3514C140.68 23.2504 142.204 23.2716 142.204 22.3514V12.9226C142.204 12.4782 141.831 12.2584 141.455 12.2588C141.07 12.2588 140.68 12.4886 140.68 12.9435ZM140.659 9.74439V10.6853C140.659 11.6471 142.224 11.6263 142.224 10.6853V9.74439C142.224 9.26365 141.832 9.02356 141.442 9.02356C141.051 9.02356 140.659 9.26365 140.659 9.74439Z" fill="#141416"/>
        <path d="M146.876 20.2814C146.249 19.5499 145.958 18.5671 145.958 17.6268C145.958 15.7446 146.98 14.1139 148.732 13.6543C149.045 13.5707 149.441 13.508 149.838 13.508C150.235 13.508 150.652 13.5707 150.985 13.6543C152.759 14.1139 153.781 15.7658 153.781 17.6684C153.781 18.5671 153.447 19.5707 152.863 20.2814C152.133 21.1176 150.985 21.6613 149.859 21.6613C148.712 21.6613 147.606 21.1595 146.876 20.2814ZM148.274 12.2744C145.978 12.9225 144.622 14.8667 144.414 17.1872C144.351 18.7556 144.748 20.0933 145.687 21.2012C146.709 22.4349 148.19 23.0827 149.859 23.0827C151.507 23.0827 153.008 22.4349 154.031 21.2012C154.949 20.0933 155.366 18.7556 155.282 17.1872C155.095 14.846 153.677 12.9225 151.403 12.2744C150.861 12.1281 150.359 12.0859 149.859 12.0859C149.337 12.0859 148.774 12.1281 148.274 12.2744Z" fill="#141416"/>
        <path d="M159.267 14.2385V12.9424C159.267 11.9391 157.766 11.9595 157.766 12.9216V22.288C157.766 22.7477 158.078 23.0196 158.558 23.0196C159.038 23.0196 159.309 22.7477 159.309 22.288V17.4372C159.309 15.1586 161.208 13.4859 163.232 13.4859C164.921 13.4859 166.464 14.8238 166.464 16.7473V22.288C166.464 22.7477 166.777 23.0196 167.237 23.0196C167.717 23.0196 167.988 22.7477 167.988 22.288V16.7473C167.988 13.7372 165.672 12.0645 163.252 12.0645C161.625 12.0645 160.018 12.7121 159.267 14.2385Z" fill="#141416"/>
        <path d="M55.7557 32.1583C55.6745 32.1524 55.6099 32.1207 55.5603 32.0634C55.5106 32.0062 55.4851 31.9369 55.4851 31.8555V26.6673C55.4851 26.5799 55.5152 26.5091 55.5737 26.4549C55.6324 26.4006 55.7016 26.3735 55.7827 26.3735H59.1873C59.2684 26.3735 59.3376 26.4006 59.3933 26.4564C59.4489 26.5121 59.4759 26.5829 59.4759 26.6673C59.4759 26.7486 59.4489 26.8179 59.3933 26.8752C59.3376 26.9325 59.2684 26.961 59.1873 26.961H56.0713V28.9044H58.4433C58.5275 28.9014 58.5981 28.93 58.6552 28.9902C58.7124 29.0505 58.7409 29.1213 58.7409 29.2027C58.7409 29.284 58.7124 29.3518 58.6552 29.4075C58.5981 29.4633 58.5275 29.4919 58.4433 29.4919H56.0713V31.5709H59.1873C59.2684 31.5709 59.3376 31.5994 59.3933 31.6567C59.4489 31.7139 59.4759 31.7833 59.4759 31.8646C59.4759 31.9489 59.4489 32.0197 59.3933 32.077C59.3376 32.1342 59.2684 32.1614 59.1873 32.1583H55.7557ZM60.5807 28.24C60.5807 28.1526 60.5988 28.0819 60.6333 28.0276C60.668 27.9734 60.7265 27.9462 60.8107 27.9462C60.8889 27.9462 60.9505 27.9749 60.9941 28.0306C61.0376 28.0864 61.0738 28.1587 61.1038 28.246L61.1399 28.802C61.2211 28.6694 61.3157 28.5473 61.424 28.4374C61.5322 28.3274 61.6525 28.2325 61.7833 28.1526C61.914 28.0728 62.0553 28.0111 62.2072 27.9673C62.3589 27.9237 62.5183 27.9011 62.6866 27.9011C62.9692 27.9011 63.2203 27.9553 63.4397 28.0622C63.6592 28.1692 63.8441 28.3153 63.9929 28.5021C64.1417 28.6905 64.2544 28.9089 64.3326 29.159C64.4107 29.409 64.4498 29.6772 64.4498 29.9634V31.8737C64.4498 31.958 64.4227 32.0273 64.3686 32.0831C64.3145 32.1388 64.2454 32.1674 64.1612 32.1674C64.08 32.1674 64.0109 32.1388 63.9523 32.0831C63.8936 32.0273 63.8636 31.958 63.8636 31.8737V29.9815C63.8636 29.7766 63.8366 29.5838 63.7809 29.4031C63.7253 29.2222 63.6442 29.0626 63.5389 28.927C63.4337 28.7914 63.303 28.6845 63.1451 28.6061C62.9873 28.5278 62.8068 28.4886 62.6054 28.4886C62.401 28.4886 62.2116 28.5308 62.0358 28.6166C61.8599 28.7025 61.7081 28.817 61.5804 28.9601C61.4525 29.1033 61.3518 29.2704 61.2782 29.4603C61.2045 29.65 61.1669 29.8489 61.1669 30.0568V31.8511C61.1669 31.9384 61.1414 32.0107 61.0888 32.0695C61.0362 32.1283 60.9655 32.1583 60.8784 32.1583C60.7942 32.1583 60.7236 32.1283 60.6664 32.0695C60.6093 32.0107 60.5807 31.9384 60.5807 31.8511V28.24ZM65.4464 30.0614C65.4464 29.7631 65.5035 29.4814 65.6163 29.2178C65.7289 28.9541 65.8823 28.7251 66.0777 28.5308C66.2746 28.3365 66.5031 28.1828 66.7647 28.0698C67.0261 27.9568 67.3042 27.9011 67.6004 27.9011C67.898 27.9011 68.1761 27.9583 68.4376 28.0713C68.6977 28.1843 68.9246 28.338 69.1185 28.5323C69.3124 28.7266 69.4658 28.9556 69.5785 29.2193C69.6912 29.4829 69.7484 29.7646 69.7484 30.0629C69.7484 30.2918 69.7153 30.5103 69.6477 30.7181C69.58 30.9275 69.4854 31.1189 69.3651 31.2937C69.4823 31.4232 69.568 31.5724 69.6221 31.741C69.6762 31.9098 69.7033 32.0921 69.7033 32.2879C69.7033 32.538 69.6611 32.7594 69.577 32.9538C69.4929 33.1466 69.3801 33.3093 69.2388 33.4419C69.0975 33.5744 68.9367 33.6753 68.7548 33.7446C68.5729 33.8139 68.385 33.8486 68.1926 33.8486C68.1205 33.8486 68.0438 33.8441 67.9627 33.8351C67.8815 33.826 67.7988 33.8154 67.7146 33.8049C67.6304 33.7944 67.5478 33.7869 67.4651 33.7808C67.3824 33.7748 67.3027 33.7733 67.2276 33.7763C67.1435 33.7823 67.0533 33.7989 66.957 33.826C66.8608 33.8531 66.7737 33.8968 66.6955 33.9571C66.6323 34.0113 66.5632 34.0324 66.4866 34.0204C66.4099 34.0083 66.3452 33.9766 66.2942 33.9255C66.243 33.8742 66.2145 33.8095 66.2085 33.7326C66.2025 33.6558 66.237 33.5805 66.3122 33.5051C66.3874 33.4389 66.4866 33.3846 66.6083 33.3439C66.7301 33.3033 66.8458 33.2731 66.957 33.2521C67.1344 33.228 67.3103 33.2234 67.4831 33.2385C67.656 33.2536 67.8273 33.2611 67.9987 33.2611C68.3474 33.2611 68.621 33.1767 68.8194 33.0065C69.0178 32.8378 69.1171 32.5967 69.1171 32.2849C69.1171 32.2096 69.1125 32.1433 69.102 32.0875C69.0915 32.0318 69.078 31.9821 69.0629 31.9384C69.0479 31.8947 69.0299 31.857 69.0103 31.8254C68.9908 31.7938 68.9712 31.7636 68.9502 31.7336C68.7669 31.8872 68.5609 32.0047 68.3309 32.0875C68.1025 32.1704 67.8589 32.2126 67.6004 32.2126C67.3057 32.2126 67.0261 32.1553 66.7647 32.0423C66.5031 31.9294 66.2746 31.7757 66.0792 31.5814C65.8823 31.3871 65.7289 31.1595 65.6163 30.8975C65.5035 30.6353 65.4464 30.3566 65.4464 30.0614ZM66.0326 30.0583C66.0326 30.2723 66.0732 30.4741 66.1543 30.6609C66.2355 30.8492 66.3467 31.015 66.4881 31.1551C66.6294 31.2966 66.7962 31.4097 66.9871 31.4925C67.178 31.5753 67.3809 31.616 67.5974 31.616C67.8169 31.616 68.0212 31.5753 68.2107 31.4925C68.4 31.4097 68.5654 31.2966 68.7052 31.1551C68.845 31.015 68.9547 30.8492 69.0344 30.6609C69.1141 30.4741 69.1532 30.2723 69.1532 30.0583C69.1532 29.8429 69.1141 29.638 69.0344 29.4482C68.9547 29.2569 68.845 29.0897 68.7052 28.9466C68.5654 28.8034 68.4 28.692 68.2107 28.6106C68.0212 28.5293 67.8169 28.4886 67.5974 28.4886C67.3809 28.4886 67.178 28.5293 66.9871 28.6106C66.7962 28.692 66.6294 28.8034 66.4881 28.9466C66.3467 29.0897 66.2355 29.2569 66.1543 29.4482C66.0732 29.638 66.0326 29.8429 66.0326 30.0583ZM71.5791 31.8601C71.5791 31.9445 71.5506 32.0153 71.4935 32.0725C71.4364 32.1298 71.3687 32.1583 71.2906 32.1583C71.2094 32.1583 71.1403 32.1298 71.0816 32.0725C71.0231 32.0153 70.993 31.9445 70.993 31.8601V26.6266C70.993 26.5422 71.0231 26.4714 71.0816 26.4142C71.1403 26.3569 71.2094 26.3284 71.2906 26.3284C71.3747 26.3284 71.4439 26.3569 71.498 26.4142C71.5521 26.4714 71.5791 26.5422 71.5791 26.6266V31.8601ZM73.0222 27.0213C73.0222 26.9189 73.0568 26.833 73.1259 26.7652C73.1935 26.6974 73.2762 26.6628 73.3725 26.6628C73.4701 26.6628 73.5543 26.6974 73.622 26.7652C73.6911 26.833 73.7256 26.9189 73.7256 27.0213C73.7256 27.1193 73.6911 27.202 73.622 27.2729C73.5543 27.3422 73.4701 27.3768 73.3725 27.3768C73.3243 27.3768 73.2777 27.3663 73.2357 27.3467C73.192 27.3272 73.1544 27.3015 73.1229 27.2699C73.0913 27.2382 73.0673 27.2006 73.0493 27.1584C73.0312 27.1162 73.0222 27.071 73.0222 27.0213ZM73.6625 31.8601C73.6625 31.9445 73.6339 32.0153 73.5769 32.0725C73.5198 32.1298 73.4521 32.1583 73.374 32.1583C73.2927 32.1583 73.2236 32.1298 73.165 32.0725C73.1064 32.0153 73.0763 31.9445 73.0763 31.8601V28.2536C73.0763 28.1723 73.1064 28.103 73.165 28.0457C73.2236 27.9885 73.2927 27.9598 73.374 27.9598C73.4581 27.9598 73.5273 27.9885 73.5814 28.0457C73.6355 28.103 73.6625 28.1723 73.6625 28.2536V31.8601ZM76.1231 30.1999C75.9864 30.1517 75.8511 30.096 75.7128 30.0342C75.5761 29.9725 75.4528 29.8971 75.3431 29.8083C75.2333 29.7193 75.1431 29.6125 75.074 29.4889C75.0049 29.3654 74.9702 29.2178 74.9702 29.046C74.9702 28.8592 75.0093 28.695 75.086 28.5534C75.1626 28.4102 75.2664 28.2913 75.3956 28.1949C75.5249 28.0984 75.6752 28.0261 75.8466 27.9764C76.0165 27.9267 76.1953 27.9011 76.3832 27.9011C76.5125 27.9011 76.6418 27.9116 76.7695 27.9342C76.8973 27.9568 77.0175 27.993 77.1288 28.0412C77.2415 28.0894 77.3422 28.1512 77.4324 28.2265C77.5226 28.3018 77.5947 28.3907 77.6489 28.4931C77.6789 28.5534 77.6909 28.6121 77.6834 28.6709C77.6759 28.7297 77.6533 28.7779 77.6173 28.8139C77.5812 28.8532 77.5361 28.8788 77.482 28.8924C77.4279 28.9059 77.3752 28.8999 77.3242 28.8727C77.1949 28.7281 77.0597 28.6242 76.9214 28.5624C76.7816 28.5006 76.6162 28.4705 76.4223 28.4705C76.314 28.4705 76.2073 28.4811 76.1021 28.5006C75.9984 28.5203 75.9052 28.5519 75.8241 28.5971C75.7428 28.6422 75.6768 28.7025 75.6286 28.7764C75.5805 28.8501 75.5565 28.9406 75.5565 29.049C75.5565 29.147 75.5805 29.2283 75.6271 29.2961C75.6737 29.3639 75.7368 29.4226 75.818 29.4724C75.8991 29.522 75.9939 29.5658 76.1007 29.6019C76.2073 29.638 76.3201 29.6742 76.4373 29.7103C76.6297 29.7706 76.8131 29.8353 76.9859 29.9046C77.1604 29.974 77.3121 30.0568 77.4429 30.1532C77.5737 30.2497 77.6789 30.3657 77.7571 30.4997C77.8352 30.6338 77.8743 30.795 77.8743 30.9818C77.8743 31.1566 77.8367 31.3193 77.7615 31.4699C77.6864 31.622 77.5827 31.7531 77.4504 31.8646C77.3181 31.9761 77.1633 32.0634 76.9845 32.1267C76.8056 32.1899 76.6132 32.2217 76.4087 32.2217C76.2555 32.2217 76.1036 32.2066 75.9533 32.1765C75.803 32.1463 75.6617 32.1011 75.5279 32.0408C75.3941 31.9806 75.2739 31.9022 75.1672 31.8073C75.0604 31.7125 74.9733 31.5994 74.9071 31.4669C74.862 31.3795 74.8485 31.3012 74.8651 31.2334C74.8816 31.1656 74.9161 31.1144 74.9702 31.0797C75.0243 31.0451 75.0905 31.033 75.1687 31.0435C75.2468 31.0541 75.322 31.0948 75.3941 31.1641C75.4873 31.3178 75.6226 31.4367 75.7984 31.5226C75.9743 31.6085 76.1772 31.6522 76.4087 31.6522C76.523 31.6522 76.6343 31.6356 76.7409 31.604C76.8477 31.5724 76.9408 31.5272 77.0221 31.4684C77.1032 31.4097 77.1679 31.3404 77.216 31.259C77.264 31.1777 77.2881 31.0873 77.2881 30.9863C77.2881 30.8839 77.2535 30.7935 77.1844 30.7152C77.1152 30.6368 77.025 30.566 76.9138 30.5028C76.8011 30.4394 76.6763 30.3837 76.538 30.3355C76.3997 30.2873 76.2614 30.2421 76.1231 30.1999ZM79.66 28.8426C79.7412 28.7056 79.8359 28.5775 79.9441 28.463C80.0524 28.347 80.1726 28.2475 80.3034 28.1647C80.4341 28.0819 80.5739 28.0171 80.7243 27.9704C80.8745 27.9237 81.0339 27.9011 81.2023 27.9011C81.4848 27.9011 81.7404 27.9553 81.9674 28.0638C82.1943 28.1723 82.3867 28.3199 82.5461 28.5067C82.7054 28.6935 82.8286 28.9119 82.9143 29.1635C83 29.4151 83.0421 29.6833 83.0421 29.9664V31.8646C83.0421 31.9489 83.015 32.0182 82.9594 32.074C82.9038 32.1298 82.8317 32.1583 82.7445 32.1583C82.6663 32.1583 82.5986 32.1298 82.5416 32.074C82.4845 32.0182 82.4559 31.9489 82.4559 31.8646V29.9664C82.4559 29.7616 82.4228 29.5687 82.3567 29.3895C82.2906 29.2102 82.1973 29.0535 82.0771 28.9194C81.9583 28.7854 81.8141 28.6799 81.6472 28.6031C81.4819 28.5262 81.297 28.4886 81.097 28.4886C80.8926 28.4886 80.7032 28.5308 80.5319 28.6166C80.359 28.7025 80.2072 28.8185 80.0794 28.9632C79.9502 29.1077 79.8495 29.275 79.7773 29.4648C79.7051 29.6546 79.669 29.8535 79.669 30.0614L79.66 30.0659V31.8601C79.66 31.9445 79.633 32.0153 79.5773 32.0725C79.5217 32.1298 79.4526 32.1583 79.3715 32.1583C79.2902 32.1583 79.2211 32.1298 79.1625 32.0725C79.1039 32.0153 79.0738 31.9445 79.0738 31.8601V26.6312C79.0738 26.5437 79.1039 26.4714 79.1625 26.4142C79.2211 26.3569 79.2902 26.3284 79.3715 26.3284C79.4526 26.3284 79.5217 26.3569 79.5773 26.4142C79.633 26.4714 79.66 26.5437 79.66 26.6312V28.8426ZM87.4148 30.1999C87.2779 30.1517 87.1426 30.096 87.0044 30.0342C86.8676 29.9725 86.7443 29.8971 86.6346 29.8083C86.5248 29.7193 86.4347 29.6125 86.3655 29.4889C86.2964 29.3654 86.2618 29.2178 86.2618 29.046C86.2618 28.8592 86.3009 28.695 86.3775 28.5534C86.4542 28.4102 86.558 28.2913 86.6873 28.1949C86.8165 28.0984 86.9668 28.0261 87.1382 27.9764C87.308 27.9267 87.4869 27.9011 87.6747 27.9011C87.804 27.9011 87.9333 27.9116 88.0611 27.9342C88.1889 27.9568 88.3091 27.993 88.4203 28.0412C88.533 28.0894 88.6337 28.1512 88.724 28.2265C88.8142 28.3018 88.8863 28.3907 88.9404 28.4931C88.9705 28.5534 88.9825 28.6121 88.975 28.6709C88.9675 28.7297 88.945 28.7779 88.9088 28.8139C88.8727 28.8532 88.8277 28.8788 88.7735 28.8924C88.7194 28.9059 88.6669 28.8999 88.6157 28.8727C88.4864 28.7281 88.3512 28.6242 88.2129 28.5624C88.0731 28.5006 87.9077 28.4705 87.7138 28.4705C87.6056 28.4705 87.4989 28.4811 87.3937 28.5006C87.29 28.5203 87.1967 28.5519 87.1156 28.5971C87.0344 28.6422 86.9683 28.7025 86.9202 28.7764C86.8721 28.8501 86.848 28.9406 86.848 29.049C86.848 29.147 86.8721 29.2283 86.9186 29.2961C86.9652 29.3639 87.0285 29.4226 87.1096 29.4724C87.1908 29.522 87.2855 29.5658 87.3922 29.6019C87.4989 29.638 87.6116 29.6742 87.7289 29.7103C87.9213 29.7706 88.1047 29.8353 88.2775 29.9046C88.4519 29.974 88.6038 30.0568 88.7344 30.1532C88.8652 30.2497 88.9705 30.3657 89.0486 30.4997C89.1268 30.6338 89.1659 30.795 89.1659 30.9818C89.1659 31.1566 89.1283 31.3193 89.0532 31.4699C88.978 31.622 88.8742 31.7531 88.742 31.8646C88.6097 31.9761 88.4549 32.0634 88.276 32.1267C88.0972 32.1899 87.9047 32.2217 87.7004 32.2217C87.547 32.2217 87.3952 32.2066 87.2449 32.1765C87.0945 32.1463 86.9533 32.1011 86.8195 32.0408C86.6857 31.9806 86.5655 31.9022 86.4587 31.8073C86.352 31.7125 86.2648 31.5994 86.1987 31.4669C86.1536 31.3795 86.1401 31.3012 86.1566 31.2334C86.1731 31.1656 86.2077 31.1144 86.2618 31.0797C86.3159 31.0451 86.3821 31.033 86.4602 31.0435C86.5384 31.0541 86.6136 31.0948 86.6857 31.1641C86.7789 31.3178 86.9142 31.4367 87.0901 31.5226C87.2659 31.6085 87.4689 31.6522 87.7004 31.6522C87.8145 31.6522 87.9258 31.6356 88.0326 31.604C88.1392 31.5724 88.2324 31.5272 88.3136 31.4684C88.3947 31.4097 88.4594 31.3404 88.5075 31.259C88.5556 31.1777 88.5796 31.0873 88.5796 30.9863C88.5796 30.8839 88.5451 30.7935 88.4759 30.7152C88.4068 30.6368 88.3166 30.566 88.2054 30.5028C88.0926 30.4394 87.9679 30.3837 87.8296 30.3355C87.6913 30.2873 87.5531 30.2421 87.4148 30.1999ZM90.6269 30.0388C90.6269 30.0388 90.6239 30.0447 90.6179 30.0568C90.6179 30.0598 90.621 30.0614 90.621 30.0614C90.621 30.0614 90.6224 30.0629 90.6224 30.0659C90.6224 30.0689 90.6239 30.0704 90.6269 30.0704C90.6269 30.2692 90.666 30.462 90.7426 30.6488C90.8193 30.8357 90.9246 30.9999 91.0598 31.143C91.1951 31.2861 91.3544 31.4021 91.5378 31.4895C91.7212 31.5768 91.9197 31.622 92.1331 31.625C92.3285 31.6281 92.5133 31.5965 92.6877 31.5316C92.862 31.4669 93.0263 31.3674 93.1795 31.2319C93.2092 31.2078 93.2426 31.1837 93.2769 31.1595C93.3113 31.1354 93.3475 31.1189 93.3865 31.1099C93.4254 31.1008 93.4663 31.1008 93.5081 31.1113C93.5508 31.1219 93.5953 31.149 93.6436 31.1912C93.7095 31.2485 93.741 31.3193 93.7382 31.4051C93.7355 31.491 93.6993 31.5693 93.6306 31.6386C93.4496 31.8209 93.2315 31.964 92.9762 32.0665C92.7208 32.1704 92.4562 32.2217 92.1827 32.2217C91.888 32.2217 91.6115 32.1659 91.3514 32.0544C91.0914 31.943 90.8644 31.7908 90.6705 31.598C90.4766 31.4036 90.3233 31.1777 90.2105 30.9185C90.0978 30.6594 90.0407 30.3822 90.0407 30.0855L90.0498 30.0583C90.0467 30.0583 90.0452 30.0553 90.0452 30.0493C90.0452 30.0463 90.0437 30.0447 90.0407 30.0447C90.0407 29.7465 90.0978 29.4678 90.2105 29.2086C90.3233 28.9496 90.4766 28.7221 90.6705 28.5278C90.8644 28.3334 91.0914 28.1798 91.3514 28.0683C91.6115 27.9568 91.888 27.9011 92.1827 27.9011C92.4592 27.9011 92.7253 27.9493 92.979 28.0457C93.2333 28.1421 93.4496 28.2807 93.6306 28.4615C93.6993 28.5308 93.7355 28.6091 93.7382 28.6965C93.741 28.7839 93.7095 28.8562 93.6436 28.9134C93.5953 28.9556 93.5508 28.9812 93.5081 28.9902C93.4663 28.9993 93.4254 28.9993 93.3865 28.9902C93.3475 28.9812 93.3113 28.9646 93.2769 28.942C93.2426 28.9194 93.2092 28.8968 93.1795 28.8727C93.0291 28.7372 92.8667 28.6378 92.6907 28.576C92.5149 28.5142 92.3285 28.4856 92.1331 28.4886C91.9226 28.4916 91.7257 28.5353 91.5424 28.6212C91.359 28.7071 91.1996 28.8216 91.0644 28.9646C90.929 29.1077 90.8224 29.272 90.7441 29.4573C90.666 29.6426 90.6269 29.8369 90.6269 30.0388ZM95.551 28.8426C95.6327 28.7056 95.7273 28.5775 95.835 28.463C95.9436 28.347 96.0643 28.2475 96.1942 28.1647C96.3251 28.0819 96.4652 28.0171 96.6156 27.9704C96.766 27.9237 96.9247 27.9011 97.0936 27.9011C97.3758 27.9011 97.6319 27.9553 97.8584 28.0638C98.0858 28.1723 98.278 28.3199 98.4376 28.5067C98.5963 28.6935 98.7198 28.9119 98.8052 29.1635C98.8915 29.4151 98.9332 29.6833 98.9332 29.9664V31.8646C98.9332 31.9489 98.9063 32.0182 98.8506 32.074C98.795 32.1298 98.7225 32.1583 98.6353 32.1583C98.5573 32.1583 98.4896 32.1298 98.433 32.074C98.3754 32.0182 98.3466 31.9489 98.3466 31.8646V29.9664C98.3466 29.7616 98.3142 29.5687 98.2483 29.3895C98.1814 29.2102 98.0886 29.0535 97.9679 28.9194C97.8491 28.7854 97.7053 28.6799 97.5382 28.6031C97.373 28.5262 97.1883 28.4886 96.9878 28.4886C96.7836 28.4886 96.5942 28.5308 96.4235 28.6166C96.2499 28.7025 96.0986 28.8185 95.9705 28.9632C95.8415 29.1077 95.7403 29.275 95.6688 29.4648C95.5965 29.6546 95.5603 29.8535 95.5603 30.0614L95.551 30.0659V31.8601C95.551 31.9445 95.5241 32.0153 95.4684 32.0725C95.4127 32.1298 95.344 32.1583 95.2623 32.1583C95.1816 32.1583 95.1119 32.1298 95.0535 32.0725C94.995 32.0153 94.9653 31.9445 94.9653 31.8601V26.6312C94.9653 26.5437 94.995 26.4714 95.0535 26.4142C95.1119 26.3569 95.1816 26.3284 95.2623 26.3284C95.344 26.3284 95.4127 26.3569 95.4684 26.4142C95.5241 26.4714 95.551 26.5437 95.551 26.6312V28.8426ZM100.557 30.0614C100.557 30.2753 100.597 30.4756 100.678 30.6639C100.76 30.8523 100.871 31.018 101.012 31.1611C101.153 31.3042 101.321 31.4172 101.511 31.5C101.702 31.5829 101.905 31.625 102.122 31.625C102.341 31.625 102.546 31.5829 102.735 31.5C102.924 31.4172 103.09 31.3042 103.229 31.1611C103.369 31.018 103.479 30.8523 103.558 30.6639C103.638 30.4756 103.677 30.2753 103.677 30.0614C103.677 29.8445 103.638 29.6395 103.558 29.4482C103.479 29.2569 103.369 29.0897 103.229 28.9466C103.09 28.8034 102.924 28.692 102.735 28.6106C102.546 28.5293 102.341 28.4886 102.122 28.4886C101.905 28.4886 101.702 28.5293 101.511 28.6106C101.321 28.692 101.153 28.8034 101.012 28.9466C100.871 29.0897 100.76 29.2569 100.678 29.4482C100.597 29.6395 100.557 29.8445 100.557 30.0614ZM99.97 30.0629C99.97 29.7646 100.028 29.4844 100.14 29.2193C100.253 28.9556 100.406 28.7266 100.602 28.5323C100.799 28.338 101.027 28.1843 101.289 28.0713C101.551 27.9583 101.828 27.9011 102.124 27.9011C102.422 27.9011 102.7 27.9583 102.962 28.0713C103.221 28.1843 103.449 28.338 103.643 28.5323C103.837 28.7266 103.99 28.9556 104.102 29.2193C104.215 29.4844 104.272 29.7646 104.272 30.0629C104.272 30.3596 104.215 30.6383 104.102 30.9005C103.99 31.1626 103.837 31.3915 103.643 31.5889C103.449 31.7847 103.221 31.9384 102.962 32.0514C102.7 32.1644 102.422 32.2217 102.124 32.2217C101.828 32.2217 101.551 32.1644 101.289 32.0514C101.027 31.9384 100.799 31.7847 100.602 31.5889C100.406 31.3915 100.253 31.1626 100.14 30.9005C100.028 30.6383 99.97 30.3596 99.97 30.0629ZM105.657 30.0614C105.657 30.2753 105.698 30.4756 105.779 30.6639C105.86 30.8523 105.971 31.018 106.113 31.1611C106.254 31.3042 106.421 31.4172 106.611 31.5C106.802 31.5829 107.006 31.625 107.222 31.625C107.441 31.625 107.645 31.5829 107.834 31.5C108.025 31.4172 108.19 31.3042 108.329 31.1611C108.469 31.018 108.579 30.8523 108.659 30.6639C108.739 30.4756 108.777 30.2753 108.777 30.0614C108.777 29.8445 108.739 29.6395 108.659 29.4482C108.579 29.2569 108.469 29.0897 108.329 28.9466C108.19 28.8034 108.025 28.692 107.834 28.6106C107.645 28.5293 107.441 28.4886 107.222 28.4886C107.006 28.4886 106.802 28.5293 106.611 28.6106C106.421 28.692 106.254 28.8034 106.113 28.9466C105.971 29.0897 105.86 29.2569 105.779 29.4482C105.698 29.6395 105.657 29.8445 105.657 30.0614ZM105.07 30.0629C105.07 29.7646 105.128 29.4844 105.24 29.2193C105.353 28.9556 105.507 28.7266 105.702 28.5323C105.899 28.338 106.128 28.1843 106.389 28.0713C106.65 27.9583 106.929 27.9011 107.225 27.9011C107.523 27.9011 107.8 27.9583 108.062 28.0713C108.322 28.1843 108.549 28.338 108.743 28.5323C108.937 28.7266 109.09 28.9556 109.203 29.2193C109.316 29.4844 109.372 29.7646 109.372 30.0629C109.372 30.3596 109.316 30.6383 109.203 30.9005C109.09 31.1626 108.937 31.3915 108.743 31.5889C108.549 31.7847 108.322 31.9384 108.062 32.0514C107.8 32.1644 107.523 32.2217 107.225 32.2217C106.929 32.2217 106.65 32.1644 106.389 32.0514C106.128 31.9384 105.899 31.7847 105.702 31.5889C105.507 31.3915 105.353 31.1626 105.24 30.9005C105.128 30.6383 105.07 30.3596 105.07 30.0629ZM111.1 31.8601C111.1 31.9445 111.071 32.0153 111.014 32.0725C110.957 32.1298 110.889 32.1583 110.811 32.1583C110.73 32.1583 110.661 32.1298 110.602 32.0725C110.544 32.0153 110.513 31.9445 110.513 31.8601V26.6266C110.513 26.5422 110.544 26.4714 110.602 26.4142C110.661 26.3569 110.73 26.3284 110.811 26.3284C110.896 26.3284 110.964 26.3569 111.018 26.4142C111.073 26.4714 111.1 26.5422 111.1 26.6266V31.8601Z" fill="#141416"/>
    </g>
    <defs>
        <clipPath id="clip0_1431_14117">
            <rect width="168" height="40" fill="white"/>
        </clipPath>
    </defs>
</svg>