<svg width="323" height="34" viewBox="0 0 323 34" fill="none" xmlns="http://www.w3.org/2000/svg">
  <g clip-path="url(#clip0_4004_3453)">
    <path fill-rule="evenodd" clip-rule="evenodd" d="M0 20.8178C1.6749 20.3496 2.91286 18.8009 2.91286 17C2.91286 15.1992 1.6749 13.6504 0 13.1822C1.16514 14.0466 1.92977 15.4513 1.92977 17C1.92977 18.5487 1.16514 19.9534 0 20.8178ZM1.42002 22.8348C1.16514 22.8348 0.94668 22.8348 0.691805 22.7987C3.60467 22.4386 5.89855 19.9894 5.89855 17C5.89855 14.0106 3.64108 11.5614 0.691805 11.2013C0.94668 11.1653 1.16514 11.1653 1.42002 11.1653C4.69699 11.1653 7.35498 13.7945 7.35498 17.036C7.35498 20.2415 4.69699 22.8348 1.42002 22.8348ZM3.49543 26.2564C3.09492 26.2564 2.73081 26.2203 2.3667 26.1843C6.99087 25.6081 10.5591 21.7182 10.5591 17C10.5591 12.2818 6.99087 8.39196 2.3667 7.81569C2.73081 7.77967 3.13133 7.74365 3.49543 7.74365C8.66577 7.74365 12.853 11.8856 12.853 17C12.853 22.1144 8.66577 26.2564 3.49543 26.2564Z" fill="#1d2939"></path>
    <path fill-rule="evenodd" clip-rule="evenodd" d="M16.7857 34C26.2889 34 33.9715 26.4004 33.9715 17C33.9715 7.59958 26.2525 0 16.7857 0C16.0574 0 15.3656 0.036017 14.6738 0.144068C23.1575 1.18856 29.7479 8.31991 29.7479 17C29.7479 25.6801 23.1575 32.8475 14.6738 33.8559C15.3656 33.964 16.0574 34 16.7857 34ZM6.4814 29.4258C5.97165 29.4258 5.4619 29.3898 4.95215 29.3178C11.1784 28.5614 15.9846 23.339 15.9846 17C15.9846 10.661 11.1784 5.40254 4.95215 4.6822C5.4619 4.61017 5.97165 4.57415 6.4814 4.57415C13.4359 4.57415 19.0431 10.1568 19.0431 17C19.0431 23.8432 13.4359 29.4258 6.4814 29.4258ZM10.7051 32.1992C10.0861 32.1992 9.43068 32.1631 8.81169 32.0911C16.3851 31.1547 22.2837 24.7797 22.2837 17C22.2837 9.25636 16.4215 2.84534 8.81169 1.9089C9.43068 1.83686 10.0861 1.80085 10.7051 1.80085C19.1888 1.80085 26.0704 8.60805 26.0704 17C26.0704 25.3919 19.1888 32.1992 10.7051 32.1992Z" fill="#1d2939"></path>
    <path fill-rule="evenodd" clip-rule="evenodd" d="M314.771 4.57422L314.407 5.11447L304.103 21.5382L293.835 5.11447L293.471 4.57422H285.242V29.4619H291.541V13.0742L301.918 28.9217L302.246 29.4619H305.924L306.288 28.9217L316.665 13.0382V29.4619H322.927V4.57422H314.771Z" fill="#1d2939"></path>
    <path fill-rule="evenodd" clip-rule="evenodd" d="M78.2465 4.57422V21.2861C78.2465 22.9789 78.0645 24.3475 77.7368 25.392C77.664 25.6081 77.5912 25.7882 77.5547 25.9323C77.1542 26.8687 76.6081 27.517 75.8798 27.9132C75.006 28.4535 73.5496 28.8496 71.547 29.1018C69.69 29.3539 67.2505 29.4619 64.3012 29.4619H64.2648C62.8084 29.4619 61.4612 29.4259 60.296 29.3899C59.0945 29.3539 58.075 29.2458 57.1647 29.1738C56.5457 29.1018 55.9996 29.0297 55.4898 28.9217C54.4339 28.7416 53.5964 28.4535 53.0503 28.1653C52.1036 27.6251 51.4482 26.7246 51.0113 25.5001C50.6472 24.3835 50.4287 23.0149 50.4287 21.3221V4.57422H56.7278V21.2861C56.7278 21.8984 56.8006 22.4026 56.9462 22.7268C57.0191 22.9429 57.1647 23.0509 57.3103 23.1229C57.638 23.267 58.3663 23.3391 59.4586 23.4471C60.6601 23.5191 62.2622 23.5912 64.3376 23.5912H64.4104C66.413 23.5912 68.0151 23.5552 69.2895 23.4471C69.5808 23.4111 69.7264 23.4111 69.8357 23.4111C70.6367 23.3391 71.1829 23.231 71.4377 23.159C71.5834 23.0869 71.6926 22.9789 71.7654 22.7628C71.9111 22.4386 71.9839 21.9344 71.9839 21.3221V4.57422H78.2465Z" fill="#1d2939"></path>
    <path fill-rule="evenodd" clip-rule="evenodd" d="M106.939 10.0488L90.6994 23.5552H107.375V29.4619H80.832V24.3475L81.2326 23.9874L97.6902 10.481H81.5602V4.57422H107.375V9.68863L106.939 10.0488Z" fill="#1d2939"></path>
    <path fill-rule="evenodd" clip-rule="evenodd" d="M136.395 4.57422V10.481H126.491V29.4619H120.192V10.481H110.252V4.57422H136.395Z" fill="#1d2939"></path>
    <path fill-rule="evenodd" clip-rule="evenodd" d="M145.607 10.481V13.9026H162.902V19.8094H145.607V23.5552H163.521V29.4619H139.308V4.57422H163.521V10.481H145.607Z" fill="#1d2939"></path>
    <path fill-rule="evenodd" clip-rule="evenodd" d="M190.138 23.5552V29.4619H166.871V4.57422H173.134V23.5552H190.138Z" fill="#1d2939"></path>
    <path fill-rule="evenodd" clip-rule="evenodd" d="M199.277 10.481V13.9026H216.572V19.8094H199.277V23.5552H217.191V29.4619H192.978V4.57422H217.191V10.481H199.277Z" fill="#1d2939"></path>
    <path fill-rule="evenodd" clip-rule="evenodd" d="M241.986 15.1991V14.0826C241.986 12.1737 241.767 11.0932 241.294 10.8771C241.003 10.733 240.274 10.5889 239.182 10.5169C238.017 10.4088 236.378 10.3728 234.339 10.3728C230.261 10.3728 227.968 10.6249 227.385 11.0932C227.203 11.2732 227.021 11.7775 226.875 12.6419C226.693 13.6864 226.584 15.1631 226.584 17.036C226.584 20.5296 226.839 22.4745 227.385 22.9427C227.421 22.9788 227.458 23.0148 227.531 23.0508C227.64 23.1228 227.822 23.1588 228.004 23.2309C229.169 23.555 231.281 23.7351 234.303 23.7351C236.342 23.7351 237.908 23.6991 239.073 23.6271C240.092 23.555 240.748 23.483 241.003 23.3749C241.039 23.3389 241.112 23.3029 241.148 23.2669C241.221 23.2309 241.257 23.1588 241.33 23.0508C241.731 22.4745 241.949 21.466 241.949 19.9893V18.8728H248.248V20.0254C248.248 22.0063 248.03 23.6271 247.629 24.8876C247.557 25.1038 247.484 25.3199 247.411 25.4999C246.938 26.6165 246.282 27.4088 245.445 27.9131C245.153 28.0932 244.862 28.2372 244.498 28.3813C244.134 28.5254 243.77 28.6334 243.369 28.7415C241.367 29.2457 238.381 29.4978 234.376 29.4978C231.536 29.4978 229.206 29.3177 227.349 28.9936C225.382 28.6334 223.926 28.0571 223.016 27.2648C222.069 26.4364 221.377 25.1398 220.94 23.3749C220.54 21.7542 220.321 19.6292 220.321 17.108C220.321 14.5508 220.54 12.4618 220.904 10.805C221.341 9.00418 222.033 7.70756 222.943 6.87918C223.853 6.0868 225.31 5.51053 227.276 5.11434C229.096 4.79019 231.463 4.61011 234.339 4.61011H234.376C237.143 4.61011 239.437 4.71816 241.221 4.97028C241.549 5.00629 241.84 5.04231 242.095 5.11434C243.551 5.36646 244.68 5.72663 245.445 6.19485H245.481C245.991 6.51901 246.428 6.91519 246.792 7.45545C247.156 7.95968 247.447 8.53595 247.666 9.22028C248.103 10.5169 248.285 12.1377 248.285 14.1186V15.2351H241.986V15.1991Z" fill="#1d2939"></path>
    <path fill-rule="evenodd" clip-rule="evenodd" d="M281.637 12.606C281.528 11.3814 281.382 10.409 281.2 9.76066C280.727 8.24795 279.817 7.0954 278.47 6.26701C278.215 6.12295 277.96 5.97888 277.669 5.83481C277.377 5.69074 277.086 5.58269 276.795 5.51066C275.775 5.18651 274.392 4.93439 272.68 4.79032C271.005 4.64625 269.003 4.57422 266.673 4.57422C264.342 4.57422 262.34 4.64625 260.665 4.82634C258.917 4.97041 257.533 5.22252 256.514 5.54668C254.839 6.05091 253.601 6.95134 252.8 8.17591C252.654 8.42803 252.509 8.68015 252.363 8.93227C252.254 9.18439 252.145 9.47252 252.035 9.76066C251.853 10.3729 251.708 11.3094 251.635 12.534C251.562 13.7225 251.489 15.2352 251.489 17.0001C251.489 19.5212 251.598 21.4662 251.781 22.8348C251.817 23.1229 251.853 23.3751 251.89 23.5912C251.926 23.8433 251.999 24.0594 252.072 24.2395C252.545 25.7162 253.455 26.9047 254.803 27.6971C255.058 27.8412 255.312 27.9852 255.604 28.1293C255.895 28.2734 256.186 28.3814 256.478 28.4535C257.169 28.6696 258.043 28.8496 259.026 28.9937C259.463 29.0657 260.009 29.1018 260.592 29.1738C262.23 29.3179 264.269 29.3899 266.6 29.3899H266.636C270.022 29.3899 272.717 29.2458 274.719 28.9217C275.12 28.8496 275.484 28.7776 275.848 28.7056C276.212 28.6335 276.54 28.5615 276.831 28.4535C277.96 28.0933 278.907 27.553 279.635 26.8687C280.399 26.1484 280.909 25.284 281.237 24.2035C281.419 23.5912 281.565 22.6547 281.674 21.4301C281.747 20.2416 281.819 18.7649 281.819 17.0001C281.747 15.2712 281.71 13.7946 281.637 12.606ZM275.156 21.4301C275.011 22.2946 274.829 22.7988 274.61 22.9429C274.355 23.1229 273.627 23.303 272.389 23.4471C270.969 23.6272 269.039 23.6992 266.563 23.6992C263.068 23.6992 260.628 23.5191 259.281 23.195C259.063 23.1229 258.844 23.0869 258.735 23.0149C258.662 22.9789 258.589 22.9429 258.553 22.9068C258.334 22.7268 258.152 22.2225 258.007 21.3581C257.825 20.3136 257.715 18.8729 257.715 17.0001C257.715 14.3708 257.898 12.534 258.298 11.5255C258.334 11.3814 258.407 11.2734 258.48 11.1653C258.517 11.1293 258.553 11.0933 258.553 11.0573C258.808 10.8772 259.536 10.6971 260.774 10.553C261.502 10.481 262.34 10.409 263.323 10.3729C264.306 10.3369 265.398 10.3009 266.636 10.3009C269.112 10.3009 271.042 10.3729 272.462 10.553C273.081 10.6251 273.554 10.6971 273.955 10.7691C274.319 10.8412 274.574 10.9492 274.683 11.0573C274.865 11.2013 275.047 11.7416 275.229 12.606C275.411 13.6865 275.52 15.1272 275.52 17.0001C275.448 18.909 275.338 20.3496 275.156 21.4301Z" fill="#1d2939"></path>
  </g>
  <defs>
    <clipPath id="clip0_4004_3453">
      <rect width="323" height="34" fill="white"></rect>
    </clipPath>
  </defs>
</svg>