<svg xmlns="http://www.w3.org/2000/svg" version="1.1" xmlns:xlink="http://www.w3.org/1999/xlink" width="473" height="438"><svg xmlns="http://www.w3.org/2000/svg" version="1.1" xmlns:xlink="http://www.w3.org/1999/xlink" width="473" height="438"><svg xmlns="http://www.w3.org/2000/svg" viewBox="0 0 473 438" style="shape-rendering:geometricPrecision;text-rendering:geometricPrecision;image-rendering:optimizeQuality;fill-rule:evenodd;clip-rule:evenodd; width:100%; height:auto;">
  <!-- Circular white background -->
  <circle cx="236.5" cy="219" r="219" fill="white"></circle>

  <!-- Tree path scaled and centered -->
  <g transform="translate(236.5,219) scale(0.6) translate(-220.5,-219)">
    <path style="opacity:1" fill="#134635" d="M204.5-.5h22a293 293 0 0 1 16 13.5 333 333 0 0 0 25 7q8.264 2.517 11 10.5.653 3.985 3 7 1.739 2.625 5 3 9.861 4.954 21 7a948 948 0 0 1 22 5.5 113 113 0 0 1 8.5 5.5q.743 2.96.5 6-2.755 4.528-1.5 10 2.034 1.32 4.5 1 5.949.994 12 1 14.896 2.323 25.5 13 1.32 9.12-7.5 11.5a187.3 187.3 0 0 0-47 2.5 4.46 4.46 0 0 0 2 1.5q7.026.653 14 1.5 4.442 3.835 10.5 4a52.9 52.9 0 0 1 18.5-1.5 68 68 0 0 1 12 7 37.1 37.1 0 0 0 12 1.5q4.545 2.413 8.5 6 2.475 9.639-4.5 16.5a47.5 47.5 0 0 0-8 4.5 54.3 54.3 0 0 0 11 4 68.4 68.4 0 0 1 9 6q.858 3.626 3 6.5a116 116 0 0 1 16 6q2.594 2.684 2 6.5-3.711 4.03-.5 9a26.1 26.1 0 0 0 9.5 5q3.739 1.91 8 2 5.798 1.796 10.5 6 1.745 7.268-4.5 11.5-9.603 2.073-18 6.5-15.897.87-30-6.5-16.681-5.615-32 2.5-10.641.66-20 5a251 251 0 0 1-29 1q-17.14-5.892-35-3-4.58-.584-8 2-7.433 1.296-13 6-6 3-9 9a62.7 62.7 0 0 0-9 6q-5.957 4.914-9 12-2.361 2.403-2 6-1.152 1.144-1.5 3a156.4 156.4 0 0 0 0 25 14.7 14.7 0 0 0 3.5 3q-1.349 8.243 4 14 2.2 5.21 2 11a111 111 0 0 1-2 16 1923 1923 0 0 0-9.5 13 72.5 72.5 0 0 0 0 17q4.278 5.903 11 9-.202 5.157 3.5 8.5a85.4 85.4 0 0 1 12 4.5q.756 4.43 3 8.5a120 120 0 0 1 15 3.5q3.654 2.056 8 3 5.676 7.345 3.5 17-3.042 4.788-7.5 8a167 167 0 0 1-17 6 553 553 0 0 0-25 4q-29.873 1.586-59-5-9.803-3.405-18-10a75.5 75.5 0 0 1-1-16 25 25 0 0 1 4-4.5 67.2 67.2 0 0 1 15-4.5q12.264 2.571 12-10 3.126-1.122 6 0 2.656-.803 1-2.5 2.73-.3 4-2.5 2.987.258 5-2 .803-6.162 6.5-8a29.3 29.3 0 0 0 2.5-7q2.339-9.24-1-18-.357-2.856-3-4 .11-2.29-2-3-6.51-11.551-5-25-.401-2.398 1-4 2.361-2.403 2-6 1.875-.116 2.5-2-.358-6.828 3.5-12 .25-13.01-.5-26-2.311-8.335-9.5-13.5a80 80 0 0 1-17-12 59.3 59.3 0 0 0-13-6.5q-4.51-2.512-10-2h-2q-7.446-8.23-18-12 .166-.925 1-1.5a208 208 0 0 0-17-4l1-1a789 789 0 0 0-28-1.5 231 231 0 0 0-14-3q-7.224-1.725-15-.5-1.373.417-2 1.5l-3 2a283 283 0 0 1-43 8 32.7 32.7 0 0 1-12-5.5q-3.99-5.39-6-11.5-1.937-1.46 0-3a55 55 0 0 1 4.5-2q.925-1.423-.5-2.5-4.545-1.612-6 3-4.09 1.227-8-.5l1-2a38 38 0 0 0 7.5-9 50 50 0 0 0 7.5-4 161 161 0 0 0 11-3q1.063-1.356 3-1a25.9 25.9 0 0 0-1-10 44 44 0 0 0-2-1q-3.022-2.136-7-2a19.2 19.2 0 0 1-5-3q-11.227-10.726-1-22 9.331-5.087 20-6.5 2.21-1.065 2-3.5.129-1.494-1-2.5-5.975-.345-2-4 7.5-1 15 0 4.92 2.362 9-2-4-1 0-2a173.5 173.5 0 0 1 22.5-3.5q2.718-.01 4.5 2 5.16-4.536 11.5-3 .725-1.422.5-3a4.93 4.93 0 0 0 3-.5q-2-2.5 0-5-3.836.42-8-.5-.208-9.04 9-8.5.834-.575 1-1.5a69 69 0 0 0 6-2.5q3.406-4.173 8-6.5 3.7-.382 6-3 5.953-1.74 12-3.5 4.263-3.607-1-5.5a98 98 0 0 1-7.5-9q-1.06-3.707 1-7a399 399 0 0 1 18-13 271 271 0 0 0 11-19q3.752-5.022 9.5-7a169 169 0 0 1 21-5h1q10.157-.27 18-6"></path>
  </g>
</svg></svg><style>@media (prefers-color-scheme: light) { :root { filter: none; } }
@media (prefers-color-scheme: dark) { :root { filter: none; } }
</style></svg>